<svg xmlns="http://www.w3.org/2000/svg" viewBox="0 0 48 48" aria-hidden="true" focusable="false">
  <path fill="#EA4335" d="M24 9.5c3.4 0 6.3 1.2 8.6 3.2l6.4-6.4C34.9 2.5 29.8 0 24 0 14.6 0 6.4 5.4 2.4 13.2l7.5 5.8C11.6 13.5 17.4 9.5 24 9.5z"/>
  <path fill="#4285F4" d="M46.6 24.5c0-1.6-.1-2.8-.4-4.1H24v7.7h12.9c-.5 3.1-2.4 5.9-5.4 7.7l8.3 6.4c4.8-4.4 7.8-10.9 7.8-17.7z"/>
  <path fill="#FBBC05" d="M9.9 28.9c-1.1-3.1-1.1-6.4 0-9.5l-7.5-5.8C-1.2 19.7-1.2 28.3 2.4 35l7.5-6.1z"/>
  <path fill="#34A853" d="M24 48c5.8 0 10.7-1.9 14.3-5.1l-8.3-6.4c-2.3 1.6-5.1 2.6-8.3 2.6-6.6 0-12.4-4.4-14.1-10.4L2.4 35C6.4 42.6 14.6 48 24 48z"/>
</svg>

